<svg id="Layer_1" data-name="Layer 1" xmlns="http://www.w3.org/2000/svg" viewBox="0 0 820 220"><defs><style>.cls-1{fill:#fbb03b;}.cls-2{fill:#22b573;}.cls-3{fill:#ff0;}.cls-4,.cls-5{fill:none;stroke-width:8px;}.cls-4{stroke:#ed9fff;}.cls-11,.cls-12,.cls-4,.cls-5{stroke-miterlimit:10;}.cls-5{stroke:#8aaeff;}.cls-6{fill:#ed1c24;}.cls-11,.cls-7{fill:aqua;}.cls-8{fill:#f15a24;}.cls-9{fill:#662d91;}.cls-10{font-size:79.42px;fill:#1b1464;}.cls-10,.cls-11,.cls-12{font-family:Krungthep;}.cls-11{font-size:85.25px;stroke:#29abe2;stroke-width:3px;}.cls-12{font-size:83px;fill:#9e005d;stroke:#9e005d;stroke-width:2px;}.cls-13{font-size:26.38px;font-family:PermanentMarker-Regular, Permanent Marker;}.cls-14{letter-spacing:-0.01em;}.cls-15{letter-spacing:0em;}.cls-16{letter-spacing:-0.03em;}</style></defs><rect class="cls-1" width="820" height="220"/><rect class="cls-2" x="38.43" y="60.27" width="496.37" height="32.75"/><rect class="cls-3" x="-24.61" y="93.62" width="496.37" height="32.75"/><path class="cls-4" d="M138.25,305.32c9.6-23.3,28.89-59.94,64.11-82.55,13-8.33,28.86-15.23,32-16.6A260.26,260.26,0,0,1,292.74,189c25.1-4.83,58.93-25,126.58-65.37,70.79-42.23,83.23-54.68,109.53-51.42,25.75,3.2,36.7,18,60.38,14,24.82-4.15,32.66-25.54,54.18-44.78C661.87,24.93,693,6.88,747.75,3.39"/><polyline class="cls-5" points="119.72 285.43 265.14 173.94 346.23 173.94 395.22 147.75 517.7 135.93 558.32 76.28 597.1 19.36 729.22 53.99"/><circle class="cls-6" cx="817.29" cy="16.84" r="151.1"/><circle class="cls-7" cx="835.22" cy="41.67" r="108.27"/><circle class="cls-2" cx="835.22" cy="41.67" r="76.56"/><rect class="cls-6" x="-78.57" y="26.65" width="506.78" height="32.75"/><polygon class="cls-8" points="245.95 276.65 149.74 329.99 55.45 273.33 57.37 163.35 153.58 110.02 247.87 166.67 245.95 276.65"/><polygon class="cls-9" points="148.72 -17.64 38.72 -17.64 -16.29 77.62 38.72 172.89 148.72 172.89 203.72 77.62 148.72 -17.64"/><rect class="cls-3" x="-25.74" y="93.93" width="320.06" height="32.75"/><rect class="cls-2" x="38.43" y="60.57" width="318.94" height="32.75"/><text class="cls-10" transform="translate(48.68 127.14) scale(1.01 1)">Sho-Viz-A-Day</text><text class="cls-11" transform="translate(37.96 121) scale(0.97 1)">Sho-Viz</text><text class="cls-12" transform="translate(248.61 129.34) scale(0.99 1)">Viz-A-Day</text><text class="cls-13" transform="translate(264.18 191.32) scale(1.1 1)">wh<tspan class="cls-14" x="37.12" y="0">e</tspan><tspan x="50.62" y="0">re a</tspan><tspan class="cls-14" x="103.74" y="0">d</tspan><tspan class="cls-15" x="116.59" y="0">ding a viz dai</tspan><tspan class="cls-16" x="287.46" y="0">l</tspan><tspan x="300.72" y="0">y - is my goal </tspan></text></svg>